Coordinates
version=1
nRows=8
nColumns=46
inDegrees=yes

Units are S.I. units (second, meters, Newtons, ...)
Angles are in degrees.

endheader
time	pelvis_tilt	pelvis_list	pelvis_rotation	pelvis_tx	pelvis_ty	pelvis_tz	bb_angle	bb_tx	bb_ty	bb_tz	hip_flexion_r	hip_adduction_r	hip_rotation_r	knee_angle_r	knee_angle_r_beta	ankle_angle_r	subtalar_angle_r	mtp_angle_r	crank_angle_r	hip_flexion_l	hip_adduction_l	hip_rotation_l	knee_angle_l	knee_angle_l_beta	ankle_angle_l	subtalar_angle_l	mtp_angle_l	crank_angle_l	lumbar_extension	lumbar_bending	lumbar_rotation	arm_flex_r	arm_add_r	arm_rot_r	elbow_flex_r	pro_sup_r	wrist_flex_r	wrist_dev_r	arm_flex_l	arm_add_l	arm_rot_l	elbow_flex_l	pro_sup_l	wrist_flex_l	wrist_dev_l
      2.50000000	    -23.17657087	     -5.75617690	      5.59897477	      0.33383999	      1.15364486	     -0.27354058	      0.00000000	      0.50000000	      0.00000000	      0.25000000	     65.48910244	     -7.65490729	     -5.61218460	     99.72654124	      1.74055650	    -11.02154727	     -6.51349874	      0.00000000	      0.00000000	     55.31212329	     -1.99482733	      8.65697054	     54.28961055	      0.94753245	      9.98443958	    -10.76151014	      0.00000000	      0.00000000	    -58.80245281	      7.48637266	     -0.14675606	     61.36807104	    -10.33991133	     19.42272042	     75.72417361	     54.51604965	      0.00000000	      0.00000000	     46.22720887	    -19.92179726	     10.35134030	     95.14977017	     53.08712528	      0.00000000	      0.00000000
      2.50500000	    -22.90558887	     -6.05039553	      5.51944731	      0.33387043	      1.15311033	     -0.27407421	      0.00000000	      0.50000000	      0.00000000	      0.25000000	     66.45956228	     -7.48139586	     -5.48764304	    101.16526093	      1.76566689	    -11.06634254	     -6.42408298	      0.00000000	      0.00000000	     53.86156437	     -2.32537191	      8.80534917	     52.67510570	      0.91935403	      9.19314343	    -11.33263518	      0.00000000	      0.00000000	    -59.00977767	      7.88815886	      0.51447220	     61.66355945	    -11.53175504	     20.75480651	     76.22780798	     54.84352611	      0.00000000	      0.00000000	     46.29529916	    -19.31922631	     10.16518016	     94.82962864	     53.04167470	      0.00000000	      0.00000000
      2.51000000	    -22.67391487	     -6.36150836	      5.37030512	      0.33410063	      1.15284426	     -0.27423206	      0.00000000	      0.50000000	      0.00000000	      0.25000000	     67.43202604	     -7.19254589	     -5.39327830	    102.49339498	      1.78884720	    -11.00339497	     -6.41392627	      0.00000000	      0.00000000	     52.40941554	     -2.80640535	      8.82670195	     51.04818675	      0.89095894	      8.61994698	    -11.40038633	      0.00000000	      0.00000000	    -59.20887040	      8.24549618	      1.03698885	     61.81437565	    -11.66958137	     21.02005884	     76.39454756	     54.90783991	      0.00000000	      0.00000000	     46.20470136	    -19.16693531	     10.06706583	     94.69609468	     53.00840473	      0.00000000	      0.00000000
      2.51500000	    -22.60985935	     -6.83860744	      5.23901856	      0.33405408	      1.15231197	     -0.27445163	      0.00000000	      0.50000000	      0.00000000	      0.25000000	     68.58770470	     -6.86307366	     -5.46963551	    103.76760095	      1.81108629	    -10.92902687	     -6.39796498	      0.00000000	      0.00000000	     51.22780766	     -3.39548212	      8.99694059	     49.56545513	      0.86508039	      8.28863679	    -11.16135951	      0.00000000	      0.00000000	    -59.23586694	      8.76440526	      1.67247773	     61.90316177	    -11.64506343	     21.15760561	     76.45468643	     54.92097335	      0.00000000	      0.00000000	     46.08526605	    -19.17255634	      9.99741898	     94.63914075	     52.98387398	      0.00000000	      0.00000000
      2.52000000	    -22.24552010	     -6.98843851	      5.16961969	      0.33434033	      1.15308993	     -0.27529095	      0.00000000	      0.50000000	      0.00000000	      0.25000000	     69.33441357	     -6.81052571	     -5.32120632	    104.89124947	      1.83069766	    -10.67982425	     -6.28297340	      0.00000000	      0.00000000	     49.44355068	     -3.67462476	      8.97466829	     47.69864239	      0.83249836	      7.44148354	    -11.60008109	      0.00000000	      0.00000000	    -59.70159869	      9.08950220	      2.04050805	     62.39820504	    -12.28191602	     22.01113676	     76.79282269	     55.09846136	      0.00000000	      0.00000000	     46.15813412	    -18.71431603	      9.68017605	     94.31322883	     52.90734296	      0.00000000	      0.00000000
      2.52500000	    -22.09968968	     -7.28861019	      4.99459402	      0.33448173	      1.15351232	     -0.27558570	      0.00000000	      0.50000000	      0.00000000	      0.25000000	     70.32550336	     -6.53780052	     -5.29252123	    105.93673413	      1.84894481	    -10.45165658	     -6.33579107	      0.00000000	      0.00000000	     48.00199068	     -4.22035049	      8.88974390	     46.02674898	      0.80331831	      6.87667725	    -11.43188586	      0.00000000	      0.00000000	    -59.92717584	      9.44459033	      2.64760459	     62.81172196	    -12.87770004	     22.86735538	     77.07873180	     55.29393926	      0.00000000	      0.00000000	     46.18635020	    -18.40808905	      9.55584656	     93.95748036	     52.86910277	      0.00000000	      0.00000000
      2.53000000	    -21.97054314	     -7.53142092	      4.74963283	      0.33465401	      1.15432716	     -0.27564409	      0.00000000	      0.50000000	      0.00000000	      0.25000000	     71.29636668	     -6.23446292	     -5.26148291	    106.87177486	      1.86526435	    -10.18771505	     -6.53341964	      0.00000000	      0.00000000	     46.53005197	     -4.79887454	      8.65152743	     44.32736915	      0.77365854	      6.38874321	    -11.12021202	      0.00000000	      0.00000000	    -60.19907067	      9.68617021	      3.10731558	     63.11267511	    -12.95100368	     23.16653458	     77.26492042	     55.36810368	      0.00000000	      0.00000000	     46.14456704	    -18.31638775	      9.42176795	     93.74749129	     52.83076903	      0.00000000	      0.00000000
      2.53500000	    -21.81557652	     -7.69514781	      4.53277716	      0.33493186	      1.15549004	     -0.27571660	      0.00000000	      0.50000000	      0.00000000	      0.25000000	     72.20271391	     -5.97745690	     -5.17633416	    107.70445687	      1.87979739	     -9.87700070	     -6.71829674	      0.00000000	      0.00000000	     45.00331675	     -5.31840052	      8.29899338	     42.62128961	      0.74388184	      5.78257900	    -10.77635887	      0.00000000	      0.00000000	    -60.53233672	      9.90947004	      3.51811581	     63.48685419	    -13.05996017	     23.54784259	     77.45578650	     55.46379937	      0.00000000	      0.00000000	     46.16898508	    -18.19902467	      9.22439820	     93.49038100	     52.78626321	      0.00000000	      0.00000000
